<?xml version="1.0" encoding="UTF-8"?>
<svg id="_Слой_1" data-name="Слой 1" xmlns="http://www.w3.org/2000/svg" xmlns:xlink="http://www.w3.org/1999/xlink" viewBox="0 0 86 86">
  <defs>
    <style>
      .cls-1 {
        fill: #cbcbcc;
      }

      .cls-2 {
        fill: #cacacb;
      }

      .cls-3 {
        fill: #e9e9e9;
      }

      .cls-4 {
        fill: #f0f0f0;
      }

      .cls-5 {
        fill: #f4f4f4;
      }

      .cls-6 {
        fill: #f4f4f5;
      }

      .cls-7 {
        fill: #fff;
      }

      .cls-8 {
        fill: #c5c5c5;
      }

      .cls-9 {
        fill: #c7c7c8;
      }

      .cls-10 {
        fill: url(#_Безымянный_градиент_368);
        opacity: .81;
      }

      .cls-11 {
        fill: #d1d1d1;
      }

      .cls-12 {
        fill: #fafafa;
      }

      .cls-13 {
        fill: #cececf;
      }

      .cls-14 {
        fill: #dbdbdb;
      }

      .cls-15 {
        fill: #cacaca;
      }

      .cls-16 {
        fill: #d8d8d8;
      }

      .cls-17 {
        fill: #f6f6f6;
      }

      .cls-18 {
        fill: #bfbfbf;
      }

      .cls-19 {
        fill: #dcdddd;
      }

      .cls-20 {
        fill: #e5e5e6;
      }

      .cls-21 {
        fill: #e2e2e2;
      }

      .cls-22 {
        fill: #f9f9fa;
      }

      .cls-23 {
        fill: #f5f5f5;
      }

      .cls-24 {
        fill: #c0c0c1;
      }

      .cls-25 {
        fill: #bababa;
      }

      .cls-26 {
        fill: #d7d7d8;
      }

      .cls-27 {
        fill: #dfe0e0;
      }

      .cls-28 {
        fill: #f6f7f7;
      }

      .cls-29 {
        fill: #d6d6d6;
      }

      .cls-30 {
        fill: #c9c9c9;
      }

      .cls-31 {
        fill: #bfc0c0;
      }

      .cls-32 {
        fill: #e0e0e0;
      }

      .cls-33 {
        fill: #f2f2f3;
      }

      .cls-34 {
        fill: #c7c7c7;
      }

      .cls-35 {
        fill: #dedede;
      }

      .cls-36 {
        fill: #d9dada;
      }

      .cls-37 {
        fill: #c3c3c3;
      }

      .cls-38 {
        fill: #cfcfcf;
      }

      .cls-39 {
        fill: #d7d7d7;
      }

      .cls-40 {
        fill: #bdbdbd;
      }

      .cls-41 {
        fill: #e1e1e1;
      }

      .cls-42 {
        fill: #e6e6e6;
      }

      .cls-43 {
        fill: #e7e7e7;
      }

      .cls-44 {
        fill: #eaeaeb;
      }

      .cls-45 {
        fill: #d1d1d2;
      }

      .cls-46 {
        fill: #ededee;
      }

      .cls-47 {
        fill: #e7e8e8;
      }

      .cls-48 {
        fill: #d4d4d4;
      }

      .cls-49 {
        fill: #fbfbfc;
      }

      .cls-50 {
        fill: #eaeaea;
      }

      .cls-51 {
        fill: #c8c8c8;
      }

      .cls-52 {
        fill: #fdfdfd;
      }

      .cls-53 {
        fill: #e4e4e4;
      }

      .cls-54 {
        fill: #fbfbfb;
      }

      .cls-55 {
        fill: #f9f9f9;
      }

      .cls-56 {
        fill: #fdfdfe;
      }

      .cls-57 {
        fill: #efeff0;
      }

      .cls-58 {
        fill: #e2e2e3;
      }

      .cls-59 {
        fill: #bcbcbd;
      }

      .cls-60 {
        fill: #e5e5e5;
      }

      .cls-61 {
        fill: #d3d3d3;
      }

      .cls-62 {
        fill: #ebebeb;
      }

      .cls-63 {
        fill: #bebebe;
      }

      .cls-64 {
        fill: #d5d5d5;
      }

      .cls-65 {
        fill: #e3e3e4;
      }

      .cls-66 {
        fill: #c3c3c4;
      }

      .cls-67 {
        fill: url(#_Безымянный_градиент_365);
      }

      .cls-68 {
        fill: #dcdcdc;
      }

      .cls-69 {
        fill: #c1c1c1;
      }

      .cls-70 {
        fill: #bcbcbc;
      }

      .cls-71 {
        fill: #d4d4d5;
      }

      .cls-72 {
        fill: #ccc;
      }

      .cls-73 {
        fill: #ddddde;
      }

      .cls-74 {
        fill: #bbb;
      }

      .cls-75 {
        fill: #f7f7f7;
      }

      .cls-76 {
        fill: #efefef;
      }

      .cls-77 {
        mask: url(#mask-1);
      }

      .cls-78 {
        mask: url(#mask);
      }

      .cls-79 {
        fill: #cdcdce;
      }

      .cls-80 {
        fill: #c2c2c2;
      }

      .cls-81 {
        fill: #f1f1f1;
      }

      .cls-82 {
        fill: #eceded;
      }

      .cls-83 {
        fill: #f3f3f3;
      }

      .cls-84 {
        fill: #dadadb;
      }

      .cls-85 {
        fill: #d9d9d9;
      }

      .cls-86 {
        fill: #cdcdcd;
      }

      .cls-87 {
        fill: #f1f1f2;
      }

      .cls-88 {
        fill: #f8f8f8;
      }

      .cls-89 {
        fill: #d2d2d2;
      }

      .cls-90 {
        fill: #c6c6c6;
      }

      .cls-91 {
        fill: #eee;
      }

      .cls-92 {
        fill: #d0d0d0;
      }

      .cls-93 {
        fill: #ececec;
      }

      .cls-94 {
        fill: #c4c4c4;
      }

      .cls-95 {
        fill: #fefefe;
      }

      .cls-96 {
        fill: #e8e8e9;
      }

      .cls-97 {
        fill: #fcfcfc;
      }

      .cls-98 {
        fill: #dfdfdf;
      }
    </style>
    <mask id="mask" x="0" y="0" width="86" height="86" maskUnits="userSpaceOnUse">
      <g id="mask0_11949_28119" data-name="mask0 11949 28119">
        <path class="cls-7" d="m0,30.02C0,14.87,0,9.42,4.71,4.71S14.87,0,32.15,0h21.7c17.28,0,22.73,0,27.44,4.71s4.71,10.16,4.71,27.44v21.7c0,17.28,0,22.73-4.71,27.44s-10.16,4.71-27.44,4.71h-21.7c-17.28,0-22.73,0-27.44-4.71S0,71.13,0,53.85v-23.83Z"/>
      </g>
    </mask>
    <radialGradient id="_Безымянный_градиент_365" data-name="Безымянный градиент 365" cx="43" cy="43" fx="43" fy="-20.04" r="63.54" gradientTransform="translate(0 1.12) scale(1 .97)" gradientUnits="userSpaceOnUse">
      <stop offset="0" stop-color="#18bcf2"/>
      <stop offset=".3" stop-color="#17b9f2"/>
      <stop offset=".46" stop-color="#13b1f2"/>
      <stop offset=".6" stop-color="#0ea3f2"/>
      <stop offset=".71" stop-color="#0690f2"/>
      <stop offset=".77" stop-color="#0082f2"/>
    </radialGradient>
    <mask id="mask-1" x="-146.67" y="-148.63" width="292.36" height="292.36" maskUnits="userSpaceOnUse">
      <g id="id4">
        <path class="cls-25" d="m-1.41,143.72L-146.67-3.37.42-148.63,145.68-1.54-1.41,143.72v-1.14S-145.53-3.36-145.53-3.36L.42-147.49,144.54-1.54-1.4,142.58v1.14Z"/>
        <path class="cls-25" d="m-1.41,143.16L-146.1-3.37.42-148.06,145.11-1.54-1.41,143.16v-1.14S-144.96-3.36-144.96-3.36L.41-146.92,143.97-1.54-1.4,142.01v1.14Z"/>
        <path class="cls-25" d="m-1.4,142.58L-145.53-3.36.42-147.49,144.54-1.54-1.4,142.58v-1.14S-144.39-3.36-144.39-3.36L.41-146.34,143.4-1.55-1.4,141.44v1.14Z"/>
        <path class="cls-25" d="m-1.4,142.01L-144.96-3.36.41-146.92,143.97-1.54-1.4,142.01v-1.14S-143.82-3.35-143.82-3.35L.4-145.77,142.83-1.55-1.39,140.87v1.14Z"/>
        <path class="cls-25" d="m-1.4,141.44L-144.39-3.36.41-146.34,143.4-1.55-1.4,141.44v-1.14S-143.25-3.35-143.25-3.35L.4-145.2,142.26-1.56-1.39,140.3v1.14Z"/>
        <path class="cls-25" d="m-1.4,140.87L-143.82-3.35.4-145.78,142.83-1.55-1.4,140.87v-1.14S-142.67-3.34-142.67-3.34L.4-144.63,141.69-1.56-1.39,139.73v1.14Z"/>
        <path class="cls-25" d="m-1.39,140.3L-143.25-3.35.4-145.2,142.26-1.56-1.39,140.3v-1.14S-142.1-3.34-142.1-3.34L.39-144.06,141.11-1.56-1.38,139.16v1.14Z"/>
        <path class="cls-25" d="m-1.39,139.73L-142.67-3.34.4-144.63,141.69-1.56-1.39,139.73v-1.14S-141.53-3.34-141.53-3.34L.39-143.49,140.54-1.57-1.38,138.59v1.14Z"/>
        <path class="cls-25" d="m-1.38,139.16L-142.11-3.34.39-144.06,141.11-1.56-1.38,139.16v-1.14S-140.96-3.33-140.96-3.33L.39-142.92,139.97-1.57-1.38,138.01v1.14Z"/>
        <path class="cls-25" d="m-1.38,138.59L-141.53-3.34.39-143.49,140.54-1.57-1.38,138.59v-1.14S-140.39-3.33-140.39-3.33L.38-142.35,139.4-1.57-1.37,137.44v1.14Z"/>
        <path class="cls-25" d="m-1.38,138.02L-140.96-3.33.39-142.92,139.97-1.57-1.38,138.02v-1.14S-139.82-3.33-139.82-3.33L.38-141.78,138.83-1.58-1.37,136.87v1.14Z"/>
        <path class="cls-74" d="m-1.37,137.44L-140.39-3.33.38-142.35,139.4-1.57-1.37,137.44v-1.14S-139.25-3.32-139.25-3.32L.38-141.21,138.26-1.58-1.37,136.3v1.14Z"/>
        <path class="cls-74" d="m-1.37,136.87L-139.82-3.33.38-141.78,138.83-1.58-1.37,136.87v-1.14S-138.68-3.32-138.68-3.32L.37-140.63,137.69-1.59-1.36,135.73v1.14Z"/>
        <path class="cls-74" d="m-1.37,136.3L-139.25-3.32.38-141.21,138.26-1.58-1.37,136.3v-1.14S-138.11-3.32-138.11-3.32L.37-140.06,137.12-1.59-1.36,135.16v1.14Z"/>
        <path class="cls-74" d="m-1.36,135.73L-138.68-3.32.37-140.64,137.69-1.59-1.36,135.73v-1.14S-137.54-3.31-137.54-3.31L.37-139.49,136.55-1.59-1.35,134.59v1.14Z"/>
        <path class="cls-74" d="m-1.36,135.16L-138.11-3.32.37-140.06,137.12-1.59-1.36,135.16v-1.14S-136.96-3.31-136.96-3.31L.36-138.92,135.98-1.59-1.35,134.02v1.14Z"/>
        <path class="cls-74" d="m-1.35,134.59L-137.54-3.31.37-139.49,136.55-1.59-1.35,134.59v-1.14S-136.4-3.31-136.4-3.31L.36-138.35,135.4-1.6-1.35,133.45v1.14Z"/>
        <path class="cls-74" d="m-1.35,134.02L-136.96-3.31.36-138.92,135.98-1.59-1.35,134.02v-1.14S-135.82-3.3-135.82-3.3L.35-137.78,134.83-1.6-1.34,132.88v1.14Z"/>
        <path class="cls-74" d="m-1.35,133.45L-136.4-3.31.36-138.35,135.4-1.6-1.35,133.45v-1.14S-135.25-3.3-135.25-3.3L.35-137.21,134.26-1.61-1.34,132.31v1.14Z"/>
        <path class="cls-74" d="m-1.34,132.88L-135.82-3.3.35-137.78,134.83-1.6-1.34,132.88v-1.14S-134.68-3.29-134.68-3.29L.35-136.64,133.69-1.61-1.34,131.73v1.14Z"/>
        <path class="cls-70" d="m-1.34,132.31L-135.25-3.3.35-137.21,134.26-1.61-1.34,132.31v-1.14S-134.11-3.29-134.11-3.29L.34-136.07,133.12-1.61-1.33,131.16v1.14Z"/>
        <path class="cls-70" d="m-1.34,131.73L-134.68-3.29.35-136.64,133.69-1.61-1.34,131.73v-1.14S-133.54-3.29-133.54-3.29L.34-135.5,132.55-1.62-1.33,130.59v1.14Z"/>
        <path class="cls-70" d="m-1.33,131.16L-134.11-3.29.34-136.07,133.12-1.61-1.33,131.16v-1.14S-132.97-3.28-132.97-3.28L.34-134.93,131.98-1.62-1.33,130.02v1.14Z"/>
        <path class="cls-70" d="m-1.33,130.59L-133.54-3.29.34-135.5,132.55-1.62-1.33,130.59v-1.14S-132.4-3.28-132.4-3.28L.33-134.35,131.41-1.62-1.32,129.45v1.14Z"/>
        <path class="cls-70" d="m-1.33,130.02L-132.97-3.28.34-134.93,131.98-1.62-1.33,130.02v-1.14S-131.82-3.28-131.82-3.28L.33-133.78,130.84-1.63-1.32,128.88v1.14Z"/>
        <path class="cls-59" d="m-1.32,129.45L-132.4-3.28.33-134.35,131.41-1.62-1.32,129.45v-1.14S-131.25-3.27-131.25-3.27L.32-133.21,130.26-1.63-1.32,128.31v1.14Z"/>
        <path class="cls-59" d="m-1.32,128.88L-131.82-3.28.33-133.78,130.84-1.63-1.32,128.88v-1.14S-130.68-3.27-130.68-3.27L.32-132.64,129.69-1.64-1.31,127.74v1.14Z"/>
        <path class="cls-59" d="m-1.32,128.31L-131.26-3.27.32-133.21,130.26-1.63-1.32,128.31v-1.14S-130.11-3.27-130.11-3.27L.32-132.07,129.12-1.64-1.31,127.17v1.14Z"/>
        <path class="cls-59" d="m-1.31,127.74L-130.68-3.27.32-132.64,129.69-1.64-1.31,127.74v-1.14S-129.54-3.26-129.54-3.26L.32-131.5,128.55-1.64-1.3,126.6v1.14Z"/>
        <path class="cls-59" d="m-1.31,127.17L-130.11-3.27.32-132.07,129.12-1.64-1.31,127.17v-1.14S-128.97-3.26-128.97-3.26L.31-130.93,127.98-1.64-1.3,126.02v1.14Z"/>
        <path class="cls-40" d="m-1.3,126.6L-129.54-3.26.32-131.5,128.55-1.64-1.3,126.6v-1.14S-128.4-3.25-128.4-3.25L.31-130.36,127.41-1.65-1.3,125.45v1.14Z"/>
        <path class="cls-40" d="m-1.3,126.02L-128.97-3.26.31-130.93,127.98-1.64-1.3,126.02v-1.14S-127.83-3.25-127.83-3.25L.3-129.79,126.84-1.65-1.29,124.88v1.14Z"/>
        <path class="cls-40" d="m-1.3,125.45L-128.4-3.25.31-130.36,127.41-1.65-1.3,125.45v-1.14S-127.26-3.25-127.26-3.25L.3-129.21,126.27-1.66-1.29,124.31v1.14Z"/>
        <path class="cls-40" d="m-1.29,124.88L-127.83-3.25.3-129.79,126.84-1.65-1.29,124.88v-1.14S-126.69-3.24-126.69-3.24L.3-128.64,125.7-1.66-1.29,123.74v1.14Z"/>
        <path class="cls-63" d="m-1.29,124.31L-127.26-3.25.3-129.21,126.27-1.66-1.29,124.31v-1.14S-126.12-3.24-126.12-3.24L.29-128.07,125.13-1.67-1.28,123.17v1.14Z"/>
        <path class="cls-63" d="m-1.29,123.74L-126.69-3.24.3-128.64,125.7-1.66-1.29,123.74v-1.14S-125.55-3.24-125.55-3.24L.29-127.5,124.55-1.67-1.28,122.6v1.14Z"/>
        <path class="cls-63" d="m-1.28,123.17L-126.12-3.24.29-128.07,125.13-1.67-1.28,123.17v-1.14S-124.97-3.23-124.97-3.23L.29-126.93,123.99-1.67-1.28,122.03v1.14Z"/>
        <path class="cls-63" d="m-1.28,122.6L-125.55-3.24.29-127.5,124.56-1.67-1.28,122.6v-1.14S-124.4-3.23-124.4-3.23L.28-126.36,123.41-1.67-1.27,121.46v1.14Z"/>
        <path class="cls-18" d="m-1.28,122.03L-124.97-3.23.29-126.93,123.99-1.67-1.28,122.03v-1.14S-123.83-3.23-123.83-3.23L.28-125.79,122.84-1.68-1.27,120.88v1.14Z"/>
        <path class="cls-18" d="m-1.27,121.46L-124.4-3.23.28-126.36,123.41-1.67-1.27,121.46v-1.14S-123.26-3.22-123.26-3.22L.27-125.22,122.27-1.68-1.27,120.32v1.14Z"/>
        <path class="cls-18" d="m-1.27,120.88L-123.83-3.23.28-125.79,122.84-1.68-1.27,120.88v-1.14S-122.69-3.22-122.69-3.22L.27-124.65,121.7-1.69-1.26,119.74v1.14Z"/>
        <path class="cls-31" d="m-1.27,120.32L-123.26-3.22.27-125.22,122.27-1.68-1.27,120.32v-1.14S-122.12-3.22-122.12-3.22L.27-124.08,121.13-1.69-1.26,119.17v1.14Z"/>
        <path class="cls-31" d="m-1.26,119.74L-122.69-3.22.27-124.65,121.7-1.69-1.26,119.74v-1.14S-121.55-3.21-121.55-3.21L.27-123.5,120.56-1.69-1.25,118.6v1.14Z"/>
        <path class="cls-31" d="m-1.26,119.17L-122.12-3.22.27-124.08,121.13-1.69-1.26,119.17v-1.14S-120.98-3.21-120.98-3.21L.26-122.93,119.99-1.69-1.25,118.03v1.14Z"/>
        <path class="cls-31" d="m-1.25,118.6L-121.55-3.21.27-123.5,120.56-1.69-1.25,118.6v-1.14S-120.41-3.2-120.41-3.2L.26-122.36,119.41-1.7-1.25,117.46v1.14Z"/>
        <path class="cls-24" d="m-1.25,118.03L-120.98-3.21.26-122.94,119.99-1.69-1.25,118.03v-1.14S-119.83-3.2-119.83-3.2L.25-121.79,118.85-1.7-1.24,116.89v1.14Z"/>
        <path class="cls-24" d="m-1.25,117.46L-120.41-3.2.26-122.36,119.42-1.7-1.25,117.46v-1.14S-119.26-3.2-119.26-3.2L.25-121.22,118.27-1.71-1.24,116.32v1.14Z"/>
        <path class="cls-24" d="m-1.24,116.89L-119.83-3.2.25-121.79,118.85-1.7-1.24,116.89v-1.14S-118.69-3.19-118.69-3.19L.25-120.65,117.7-1.71-1.24,115.75v1.14Z"/>
        <path class="cls-69" d="m-1.24,116.32L-119.26-3.2.25-121.22,118.27-1.71-1.24,116.32v-1.14S-118.12-3.19-118.12-3.19L.24-120.08,117.13-1.72-1.23,115.17v1.14Z"/>
        <path class="cls-69" d="m-1.24,115.75L-118.69-3.19.25-120.65,117.7-1.71-1.24,115.75v-1.14S-117.55-3.19-117.55-3.19L.24-119.51,116.56-1.72-1.23,114.6v1.14Z"/>
        <path class="cls-69" d="m-1.23,115.18L-118.12-3.19.24-120.08,117.13-1.72-1.23,115.18v-1.14S-116.98-3.18-116.98-3.18L.24-118.94,115.99-1.72-1.23,114.03v1.14Z"/>
        <path class="cls-80" d="m-1.23,114.6L-117.55-3.19.24-119.51,116.56-1.72-1.23,114.6v-1.14S-116.41-3.18-116.41-3.18L.23-118.37,115.42-1.72-1.22,113.46v1.14Z"/>
        <path class="cls-80" d="m-1.23,114.03L-116.98-3.18.24-118.94,115.99-1.72-1.23,114.03v-1.14S-115.84-3.18-115.84-3.18L.23-117.79,114.85-1.73-1.22,112.89v1.14Z"/>
        <path class="cls-80" d="m-1.22,113.46L-116.41-3.18.23-118.37,115.42-1.72-1.22,113.46v-1.14S-115.27-3.17-115.27-3.17L.22-117.22,114.28-1.73-1.22,112.32v1.14Z"/>
        <path class="cls-37" d="m-1.22,112.89L-115.84-3.18.23-117.8,114.85-1.73-1.22,112.89v-1.14S-114.7-3.17-114.7-3.17L.22-116.65,113.71-1.74-1.21,111.75v1.14Z"/>
        <path class="cls-37" d="m-1.22,112.32L-115.27-3.17.22-117.22,114.28-1.73-1.22,112.32v-1.14S-114.12-3.16-114.12-3.16L.22-116.08,113.14-1.74-1.21,111.18v1.14Z"/>
        <path class="cls-66" d="m-1.21,111.75L-114.7-3.17.22-116.65,113.71-1.74-1.21,111.75v-1.14S-113.55-3.16-113.55-3.16L.22-115.51,112.56-1.74-1.2,110.61v1.14Z"/>
        <path class="cls-66" d="m-1.21,111.18L-114.12-3.16.22-116.08,113.14-1.74-1.21,111.18v-1.14S-112.98-3.16-112.98-3.16L.21-114.94,111.99-1.75-1.2,110.03v1.14Z"/>
        <path class="cls-66" d="m-1.2,110.61L-113.55-3.16.22-115.51,112.56-1.74-1.2,110.61v-1.14S-112.41-3.15-112.41-3.15L.21-114.37,111.42-1.75-1.2,109.47v1.14Z"/>
        <path class="cls-94" d="m-1.2,110.04L-112.98-3.16.21-114.94,111.99-1.75-1.2,110.04v-1.14S-111.84-3.15-111.84-3.15L.2-113.8,110.85-1.75-1.19,108.89v1.14Z"/>
        <path class="cls-94" d="m-1.2,109.47L-112.41-3.15.21-114.37,111.42-1.75-1.2,109.47v-1.14S-111.27-3.15-111.27-3.15L.2-113.23,110.28-1.76-1.19,108.32v1.14Z"/>
        <path class="cls-8" d="m-1.19,108.89L-111.84-3.15.2-113.8,110.85-1.75-1.19,108.89v-1.14S-110.7-3.14-110.7-3.14L.2-112.65,109.71-1.76-1.19,107.75v1.14Z"/>
        <path class="cls-8" d="m-1.19,108.32L-111.27-3.15.2-113.23,110.28-1.76-1.19,108.32v-1.14S-110.13-3.14-110.13-3.14L.19-112.09,109.14-1.77-1.18,107.18v1.14Z"/>
        <path class="cls-8" d="m-1.19,107.75L-110.7-3.14.2-112.66,109.71-1.76-1.19,107.75v-1.14S-109.56-3.14-109.56-3.14L.19-111.51,108.57-1.77-1.18,106.61v1.14Z"/>
        <path class="cls-90" d="m-1.18,107.18L-110.13-3.14.19-112.09,109.14-1.77-1.18,107.18v-1.14S-108.98-3.13-108.98-3.13L.19-110.94,108-1.77-1.17,106.04v1.14Z"/>
        <path class="cls-90" d="m-1.18,106.61L-109.56-3.14.19-111.51,108.57-1.77-1.18,106.61v-1.14S-108.42-3.13-108.42-3.13L.18-110.37,107.42-1.77-1.17,105.47v1.14Z"/>
        <path class="cls-34" d="m-1.17,106.04L-108.98-3.13.19-110.94,108-1.77-1.17,106.04v-1.14S-107.84-3.13-107.84-3.13L.18-109.8,106.85-1.78-1.17,104.9v1.14Z"/>
        <path class="cls-34" d="m-1.17,105.47L-108.42-3.13.18-110.37,107.42-1.77-1.17,105.47v-1.14S-107.27-3.12-107.27-3.12L.17-109.23,106.28-1.78-1.17,104.33v1.14Z"/>
        <path class="cls-34" d="m-1.17,104.9L-107.84-3.13.18-109.8,106.85-1.78-1.17,104.9v-1.14S-106.7-3.12-106.7-3.12L.17-108.66,105.71-1.79-1.16,103.75v1.14Z"/>
        <path class="cls-9" d="m-1.17,104.33L-107.27-3.12.17-109.23,106.28-1.78-1.17,104.33v-1.14S-106.13-3.11-106.13-3.11L.17-108.09,105.14-1.79-1.16,103.18v1.14Z"/>
        <path class="cls-9" d="m-1.16,103.75L-106.7-3.12.17-108.66,105.71-1.79-1.16,103.75v-1.14S-105.56-3.11-105.56-3.11L.17-107.52,104.57-1.79-1.15,102.61v1.14Z"/>
        <path class="cls-51" d="m-1.16,103.18L-106.13-3.11.17-108.09,105.14-1.79-1.16,103.18v-1.14S-104.99-3.11-104.99-3.11L.16-106.95,104-1.8-1.15,102.04v1.14Z"/>
        <path class="cls-51" d="m-1.15,102.61L-105.56-3.11.17-107.52,104.57-1.79-1.15,102.61v-1.14S-104.42-3.1-104.42-3.1L.16-106.37,103.43-1.8-1.15,101.47v1.14Z"/>
        <path class="cls-30" d="m-1.15,102.04L-104.99-3.11.16-106.95,104-1.8-1.15,102.04v-1.14S-103.85-3.1-103.85-3.1L.15-105.8,102.86-1.8-1.14,100.9v1.14Z"/>
        <path class="cls-30" d="m-1.15,101.47L-104.42-3.1.16-106.37,103.43-1.8-1.15,101.47v-1.14S-103.28-3.1-103.28-3.1L.15-105.23,102.29-1.81-1.14,100.33v1.14Z"/>
        <path class="cls-15" d="m-1.14,100.9L-103.85-3.1.15-105.8,102.86-1.8-1.14,100.9v-1.14S-102.71-3.09-102.71-3.09L.15-104.66,101.71-1.81-1.14,99.76v1.14Z"/>
        <path class="cls-15" d="m-1.14,100.33L-103.28-3.1.15-105.23,102.29-1.81-1.14,100.33v-1.14S-102.13-3.09-102.13-3.09L.14-104.09,101.14-1.82-1.13,99.19v1.14Z"/>
        <path class="cls-2" d="m-1.14,99.76L-102.71-3.09.15-104.66,101.72-1.81-1.14,99.76v-1.14S-101.56-3.09-101.56-3.09L.14-103.52,100.57-1.82-1.13,98.62v1.14Z"/>
        <path class="cls-2" d="m-1.13,99.19L-102.13-3.09.14-104.09,101.14-1.82-1.13,99.19v-1.14S-100.99-3.08-100.99-3.08L.14-102.95,100-1.82-1.12,98.04v1.14Z"/>
        <path class="cls-2" d="m-1.13,98.62L-101.56-3.09.14-103.52,100.57-1.82-1.13,98.62v-1.14S-100.42-3.08-100.42-3.08L.13-102.38,99.43-1.82-1.12,97.47v1.14Z"/>
        <path class="cls-1" d="m-1.12,98.04L-100.99-3.08.14-102.95,100-1.82-1.12,98.04v-1.14S-99.85-3.08-99.85-3.08L.13-101.81,98.86-1.83-1.12,96.9v1.14Z"/>
        <path class="cls-1" d="m-1.12,97.47L-100.42-3.08.13-102.38,99.43-1.82-1.12,97.47v-1.14S-99.28-3.07-99.28-3.07L.12-101.24,98.29-1.83-1.12,96.33v1.14Z"/>
        <path class="cls-72" d="m-1.12,96.9L-99.85-3.08.13-101.81,98.86-1.83-1.12,96.9v-1.14S-98.71-3.07-98.71-3.07L.12-100.66,97.72-1.84-1.11,95.76v1.14Z"/>
        <path class="cls-72" d="m-1.12,96.33L-99.28-3.07.12-101.24,98.29-1.83-1.12,96.33v-1.14S-98.14-3.06-98.14-3.06L.12-100.09,97.15-1.84-1.11,95.19v1.14Z"/>
        <path class="cls-86" d="m-1.11,95.76L-98.71-3.07.12-100.66,97.72-1.84-1.11,95.76v-1.14S-97.57-3.06-97.57-3.06L.11-99.52,96.57-1.84-1.1,94.62v1.14Z"/>
        <path class="cls-86" d="m-1.11,95.19L-98.14-3.06.12-100.1,97.15-1.84-1.11,95.19v-1.14S-96.99-3.06-96.99-3.06L.11-98.95,96.01-1.85-1.1,94.05v1.14Z"/>
        <path class="cls-79" d="m-1.1,94.62L-97.57-3.06.11-99.52,96.58-1.84-1.1,94.62v-1.14S-96.42-3.05-96.42-3.05L.11-98.38,95.43-1.85-1.1,93.48v1.14Z"/>
        <path class="cls-79" d="m-1.1,94.05L-96.99-3.06.11-98.95,96.01-1.85-1.1,94.05v-1.14S-95.85-3.05-95.85-3.05L.1-97.81,94.86-1.85-1.09,92.9v1.14Z"/>
        <path class="cls-13" d="m-1.1,93.48L-96.42-3.05.11-98.38,95.43-1.85-1.1,93.48v-1.14S-95.28-3.05-95.28-3.05L.1-97.24,94.29-1.86-1.09,92.33v1.14Z"/>
        <path class="cls-13" d="m-1.09,92.9L-95.85-3.05.1-97.81,94.86-1.85-1.09,92.9v-1.14S-94.71-3.04-94.71-3.04L.1-96.67,93.72-1.86-1.09,91.76v1.14Z"/>
        <path class="cls-38" d="m-1.09,92.34L-95.28-3.05.1-97.24,94.29-1.86-1.09,92.34v-1.14S-94.14-3.04-94.14-3.04L.09-96.1,93.15-1.87-1.08,91.19v1.14Z"/>
        <path class="cls-38" d="m-1.09,91.76L-94.71-3.04.1-96.67,93.72-1.86-1.09,91.76v-1.14S-93.57-3.04-93.57-3.04L.09-95.52,92.58-1.87-1.08,90.62v1.14Z"/>
        <path class="cls-92" d="m-1.08,91.19L-94.14-3.04.09-96.1,93.15-1.87-1.08,91.19v-1.14S-93-3.03-93-3.03L.09-94.96,92.01-1.87-1.07,90.05v1.14Z"/>
        <path class="cls-92" d="m-1.08,90.62L-93.57-3.04.09-95.52,92.58-1.87-1.08,90.62v-1.14S-92.43-3.03-92.43-3.03L.08-94.38,91.44-1.87-1.07,89.48v1.14Z"/>
        <path class="cls-11" d="m-1.07,90.05L-93-3.03.09-94.96,92.01-1.87-1.07,90.05v-1.14S-91.86-3.03-91.86-3.03L.08-93.81,90.87-1.88-1.07,88.91v1.14Z"/>
        <path class="cls-11" d="m-1.07,89.48L-92.43-3.03.08-94.38,91.44-1.87-1.07,89.48v-1.14S-91.28-3.02-91.28-3.02L.07-93.24,90.3-1.88-1.07,88.34v1.14Z"/>
        <path class="cls-45" d="m-1.07,88.91L-91.86-3.03.08-93.81,90.87-1.88-1.07,88.91v-1.14S-90.71-3.02-90.71-3.02L.07-92.67,89.72-1.89-1.06,87.77v1.14Z"/>
        <path class="cls-45" d="m-1.07,88.34L-91.28-3.02.07-93.24,90.3-1.88-1.07,88.34v-1.14S-90.14-3.01-90.14-3.01L.07-92.1,89.15-1.89-1.06,87.19v1.14Z"/>
        <path class="cls-89" d="m-1.06,87.77L-90.71-3.02.07-92.67,89.72-1.89-1.06,87.77v-1.14S-89.57-3.01-89.57-3.01L.06-91.53,88.58-1.89-1.05,86.63v1.14Z"/>
        <path class="cls-61" d="m-1.06,87.2L-90.14-3.01.07-92.1,89.15-1.89-1.06,87.2v-1.14S-89-3.01-89-3.01L.06-90.96,88.01-1.9-1.05,86.05v1.14Z"/>
        <path class="cls-61" d="m-1.05,86.63L-89.57-3.01.06-91.53,88.58-1.89-1.05,86.63v-1.14S-88.43-3-88.43-3L.06-90.39,87.44-1.9-1.05,85.48v1.14Z"/>
        <path class="cls-48" d="m-1.05,86.05L-89-3.01.06-90.96,88.01-1.9-1.05,86.05v-1.14S-87.86-3-87.86-3L.05-89.81,86.87-1.9-1.04,84.91v1.14Z"/>
        <path class="cls-48" d="m-1.05,85.48L-88.43-3,.06-90.39,87.44-1.9-1.05,85.48v-1.14S-87.29-3-87.29-3L.05-89.25,86.3-1.91-1.04,84.34v1.14Z"/>
        <path class="cls-71" d="m-1.04,84.91L-87.86-3,.05-89.82,86.87-1.9-1.04,84.91v-1.14S-86.72-2.99-86.72-2.99L.05-88.67,85.73-1.91-1.04,83.77v1.14Z"/>
        <path class="cls-71" d="m-1.04,84.34L-87.29-3,.05-89.25,86.3-1.91-1.04,84.34v-1.14S-86.14-2.99-86.14-2.99L.04-88.1,85.16-1.92-1.03,83.2v1.14Z"/>
        <path class="cls-64" d="m-1.04,83.77L-86.72-2.99.05-88.67,85.73-1.91-1.04,83.77v-1.14S-85.58-2.99-85.58-2.99L.04-87.53,84.58-1.92-1.03,82.63v1.14Z"/>
        <path class="cls-64" d="m-1.03,83.2L-86.14-2.99.04-88.1,85.16-1.92-1.03,83.2v-1.14S-85-2.98-85-2.98L.04-86.96,84.01-1.92-1.02,82.05v1.14Z"/>
        <path class="cls-29" d="m-1.03,82.63L-85.58-2.99.04-87.53,84.58-1.92-1.03,82.63v-1.14S-84.43-2.98-84.43-2.98L.03-86.39,83.44-1.92-1.02,81.49v1.14Z"/>
        <path class="cls-29" d="m-1.02,82.06L-85-2.98.04-86.96,84.01-1.92-1.02,82.06v-1.14S-83.86-2.98-83.86-2.98L.03-85.82,82.87-1.93-1.02,80.91v1.14Z"/>
        <path class="cls-39" d="m-1.02,81.49L-84.43-2.98.03-86.39,83.44-1.92-1.02,81.49v-1.14S-83.29-2.97-83.29-2.97L.02-85.25,82.3-1.93-1.02,80.34v1.14Z"/>
        <path class="cls-39" d="m-1.02,80.91L-83.86-2.98.03-85.82,82.87-1.93-1.02,80.91v-1.14S-82.72-2.97-82.72-2.97L.02-84.68,81.73-1.94-1.01,79.77v1.14Z"/>
        <path class="cls-26" d="m-1.02,80.34L-83.29-2.97.02-85.25,82.3-1.93-1.02,80.34v-1.14S-82.15-2.96-82.15-2.96L.02-84.11,81.16-1.94-1.01,79.2v1.14Z"/>
        <path class="cls-26" d="m-1.01,79.77L-82.72-2.97.02-84.68,81.73-1.94-1.01,79.77v-1.14S-81.58-2.96-81.58-2.96L.01-83.53,80.59-1.94-1,78.63v1.14Z"/>
        <path class="cls-16" d="m-1.01,79.2L-82.15-2.96.02-84.11,81.16-1.94-1.01,79.2v-1.14S-81.01-2.96-81.01-2.96L0-82.96,80.02-1.95-1,78.06v1.14Z"/>
        <path class="cls-85" d="m-1,78.63L-81.58-2.96.01-83.53,80.59-1.94-1,78.63v-1.14S-80.44-2.95-80.44-2.95L0-82.39,79.45-1.95-1,77.49v1.14Z"/>
        <path class="cls-85" d="m-1,78.06L-81.01-2.96,0-82.96,80.02-1.95-1,78.06v-1.14S-79.86-2.95-79.86-2.95L0-81.82,78.87-1.95-.99,76.92v1.14Z"/>
        <path class="cls-36" d="m-1,77.49L-80.44-2.95,0-82.39,79.45-1.95-1,77.49v-1.14S-79.29-2.95-79.29-2.95L0-81.25,78.3-1.96-.99,76.35v1.14Z"/>
        <path class="cls-36" d="m-.99,76.92L-79.86-2.95,0-81.82,78.87-1.95-.99,76.92v-1.14S-78.72-2.94-78.72-2.94L0-80.68,77.73-1.96-.99,75.78v1.14Z"/>
        <path class="cls-84" d="m-.99,76.35L-79.29-2.95,0-81.25,78.3-1.96-.99,76.35v-1.14S-78.15-2.94-78.15-2.94L0-80.11,77.16-1.97-.98,75.2v1.14Z"/>
        <path class="cls-84" d="m-.99,75.78L-78.72-2.94,0-80.68,77.73-1.96-.99,75.78v-1.14S-77.58-2.94-77.58-2.94L-.01-79.54,76.59-1.97-.98,74.63v1.14Z"/>
        <path class="cls-14" d="m-.98,75.2L-78.15-2.94,0-80.11,77.16-1.97-.98,75.2v-1.14S-77.01-2.93-77.01-2.93L-.01-78.97,76.02-1.97-.97,74.06v1.14Z"/>
        <path class="cls-14" d="m-.98,74.63L-77.58-2.94-.01-79.54,76.59-1.97-.98,74.63v-1.14S-76.44-2.93-76.44-2.93L-.02-78.4,75.45-1.97-.97,73.49v1.14Z"/>
        <path class="cls-68" d="m-.97,74.06L-77.01-2.93-.01-78.97,76.02-1.97-.97,74.06v-1.14S-75.87-2.93-75.87-2.93L-.02-77.82,74.88-1.98-.97,72.92v1.14Z"/>
        <path class="cls-19" d="m-.97,73.49L-76.44-2.93-.02-78.4,75.45-1.97-.97,73.49v-1.14S-75.3-2.92-75.3-2.92L-.03-77.25,74.31-1.98-.97,72.35v1.14Z"/>
        <path class="cls-19" d="m-.97,72.92L-75.87-2.93-.02-77.82,74.88-1.98-.97,72.92v-1.14S-74.73-2.92-74.73-2.92L-.03-76.68,73.73-1.99-.96,71.78v1.14Z"/>
        <path class="cls-73" d="m-.97,72.35L-75.3-2.92-.03-77.25,74.31-1.98-.97,72.35v-1.14S-74.15-2.91-74.15-2.91L-.03-76.11,73.17-1.99-.96,71.21v1.14Z"/>
        <path class="cls-73" d="m-.96,71.78L-74.73-2.92-.03-76.68,73.74-1.99-.96,71.78v-1.14S-73.58-2.91-73.58-2.91L-.04-75.54,72.59-1.99-.95,70.64v1.14Z"/>
        <path class="cls-35" d="m-.96,71.21L-74.15-2.91-.03-76.11,73.17-1.99-.96,71.21v-1.14S-73.01-2.91-73.01-2.91L-.04-74.97,72.02-2-.95,70.06v1.14Z"/>
        <path class="cls-35" d="m-.95,70.64L-73.59-2.91-.04-75.54,72.59-1.99-.95,70.64v-1.14S-72.44-2.9-72.44-2.9L-.04-74.4,71.45-2-.95,69.49v1.14Z"/>
        <path class="cls-98" d="m-.95,70.06L-73.01-2.91-.04-74.97,72.02-2-.95,70.06v-1.14S-71.87-2.9-71.87-2.9L-.05-73.83,70.88-2-.94,68.92v1.14Z"/>
        <path class="cls-98" d="m-.95,69.5L-72.44-2.9-.04-74.4,71.45-2-.95,69.5v-1.14S-71.3-2.9-71.3-2.9L-.05-73.26,70.31-2.01-.94,68.35v1.14Z"/>
        <path class="cls-27" d="m-.94,68.92L-71.87-2.9-.05-73.83,70.88-2-.94,68.92v-1.14S-70.73-2.89-70.73-2.89L-.06-72.68,69.74-2.01-.94,67.78v1.14Z"/>
        <path class="cls-27" d="m-.94,68.35L-71.3-2.9-.05-73.26,70.31-2.01-.94,68.35v-1.14S-70.16-2.89-70.16-2.89L-.06-72.11,69.17-2.02-.93,67.21v1.14Z"/>
        <path class="cls-32" d="m-.94,67.78L-70.73-2.89-.06-72.68,69.74-2.01-.94,67.78v-1.14S-69.59-2.88-69.59-2.88L-.06-71.54,68.6-2.02-.93,66.64v1.14Z"/>
        <path class="cls-41" d="m-.93,67.21L-70.16-2.89-.06-72.12,69.17-2.02-.93,67.21v-1.14S-69.01-2.88-69.01-2.88L-.06-70.97,68.03-2.02-.92,66.07v1.14Z"/>
        <path class="cls-41" d="m-.93,66.64L-69.59-2.88-.06-71.54,68.6-2.02-.93,66.64v-1.14S-68.44-2.88-68.44-2.88L-.07-70.4,67.45-2.02-.92,65.5v1.14Z"/>
        <path class="cls-21" d="m-.92,66.07L-69.01-2.88-.06-70.97,68.03-2.02-.92,66.07v-1.14S-67.87-2.88-67.87-2.88L-.07-69.83,66.88-2.03-.92,64.93v1.14Z"/>
        <path class="cls-21" d="m-.92,65.5L-68.44-2.88-.07-70.4,67.45-2.02-.92,65.5v-1.14S-67.3-2.87-67.3-2.87L-.08-69.26,66.31-2.03-.92,64.35v1.14Z"/>
        <path class="cls-58" d="m-.92,64.93L-67.87-2.88-.07-69.83,66.88-2.03-.92,64.93v-1.14S-66.73-2.87-66.73-2.87L-.08-68.69,65.74-2.04-.91,63.79v1.14Z"/>
        <path class="cls-58" d="m-.92,64.36L-67.3-2.87-.08-69.26,66.31-2.03-.92,64.36v-1.14S-66.16-2.86-66.16-2.86L-.08-68.12,65.17-2.04-.91,63.21v1.14Z"/>
        <path class="cls-65" d="m-.91,63.79L-66.73-2.87-.08-68.69,65.74-2.04-.91,63.79v-1.14S-65.59-2.86-65.59-2.86L-.09-67.55,64.6-2.04-.9,62.64v1.14Z"/>
        <path class="cls-65" d="m-.91,63.21L-66.16-2.86-.08-68.12,65.17-2.04-.91,63.21v-1.14S-65.02-2.86-65.02-2.86L-.09-66.98,64.03-2.05-.9,62.07v1.14Z"/>
        <path class="cls-53" d="m-.9,62.64L-65.59-2.86-.09-67.55,64.6-2.04-.9,62.64v-1.14S-64.45-2.85-64.45-2.85L-.09-66.41,63.46-2.05-.89,61.5v1.14Z"/>
        <path class="cls-60" d="m-.9,62.07L-65.02-2.86-.09-66.98,64.03-2.05-.9,62.07v-1.14S-63.88-2.85-63.88-2.85L-.1-65.83,62.89-2.05-.89,60.93v1.14Z"/>
        <path class="cls-60" d="m-.89,61.5L-64.45-2.85-.09-66.41,63.46-2.05-.89,61.5v-1.14S-63.3-2.85-63.3-2.85L-.1-65.26,62.32-2.06-.89,60.36v1.14Z"/>
        <path class="cls-20" d="m-.89,60.93L-63.88-2.85-.1-65.83,62.89-2.05-.89,60.93v-1.14S-62.74-2.84-62.74-2.84L-.11-64.69,61.74-2.06-.89,59.79v1.14Z"/>
        <path class="cls-20" d="m-.89,60.36L-63.3-2.85-.1-65.26,62.32-2.06-.89,60.36v-1.14S-62.16-2.84-62.16-2.84L-.11-64.12,61.17-2.07-.88,59.21v1.14Z"/>
        <path class="cls-42" d="m-.89,59.79L-62.74-2.84-.11-64.69,61.74-2.06-.89,59.79v-1.14S-61.59-2.83-61.59-2.83L-.11-63.55,60.6-2.07-.88,58.65v1.14Z"/>
        <path class="cls-42" d="m-.88,59.22L-62.16-2.84-.11-64.12,61.17-2.07-.88,59.22v-1.14S-61.02-2.83-61.02-2.83L-.11-62.98,60.03-2.07-.87,58.07v1.14Z"/>
        <path class="cls-43" d="m-.88,58.65L-61.59-2.83-.11-63.55,60.6-2.07-.88,58.65v-1.14S-60.45-2.83-60.45-2.83L-.12-62.41,59.46-2.07-.87,57.5v1.14Z"/>
        <path class="cls-43" d="m-.87,58.07L-61.02-2.83-.11-62.98,60.03-2.07-.87,58.07v-1.14S-59.88-2.83-59.88-2.83L-.12-61.84,58.89-2.08-.87,56.93v1.14Z"/>
        <path class="cls-47" d="m-.87,57.5L-60.45-2.83-.12-62.41,59.46-2.07-.87,57.5v-1.14S-59.31-2.82-59.31-2.82L-.13-61.27,58.32-2.08-.87,56.36v1.14Z"/>
        <path class="cls-47" d="m-.87,56.93L-59.88-2.83-.12-61.84,58.89-2.08-.87,56.93v-1.14S-58.74-2.82-58.74-2.82L-.13-60.69,57.75-2.09-.86,55.79v1.14Z"/>
        <path class="cls-96" d="m-.87,56.36L-59.31-2.82-.13-61.27,58.32-2.08-.87,56.36v-1.14S-58.16-2.81-58.16-2.81L-.13-60.12,57.18-2.09-.86,55.22v1.14Z"/>
        <path class="cls-96" d="m-.86,55.79L-58.74-2.82-.13-60.69,57.75-2.09-.86,55.79v-1.14S-57.6-2.81-57.6-2.81L-.14-59.55,56.6-2.1-.85,54.65v1.14Z"/>
        <path class="cls-3" d="m-.86,55.22L-58.16-2.81-.13-60.12,57.18-2.09-.86,55.22v-1.14S-57.02-2.81-57.02-2.81L-.14-58.98,56.03-2.1-.85,54.08v1.14Z"/>
        <path class="cls-3" d="m-.85,54.65L-57.6-2.81-.14-59.55,56.6-2.09-.85,54.65v-1.14S-56.45-2.8-56.45-2.8L-.14-58.41,55.46-2.1-.84,53.51v1.14Z"/>
        <path class="cls-50" d="m-.85,54.08L-57.02-2.81-.14-58.98,56.03-2.1-.85,54.08v-1.14S-55.88-2.8-55.88-2.8L-.15-57.84,54.89-2.1-.84,52.94v1.14Z"/>
        <path class="cls-44" d="m-.84,53.51L-56.45-2.8-.14-58.41,55.46-2.1-.84,53.51v-1.14S-55.31-2.8-55.31-2.8L-.15-57.27,54.32-2.11-.84,52.36v1.14Z"/>
        <path class="cls-44" d="m-.84,52.94L-55.88-2.8-.15-57.84,54.89-2.1-.84,52.94v-1.14S-54.74-2.79-54.74-2.79L-.16-56.7,53.75-2.11-.84,51.79v1.14Z"/>
        <path class="cls-62" d="m-.84,52.36L-55.31-2.8-.15-57.27,54.32-2.11-.84,52.36v-1.14S-54.17-2.79-54.17-2.79L-.16-56.13,53.18-2.12-.83,51.22v1.14Z"/>
        <path class="cls-62" d="m-.84,51.79L-54.74-2.79-.16-56.7,53.75-2.11-.84,51.79v-1.14S-53.6-2.78-53.6-2.78L-.16-55.56,52.61-2.12-.83,50.65v1.14Z"/>
        <path class="cls-93" d="m-.83,51.22L-54.17-2.79-.16-56.13,53.18-2.12-.83,51.22v-1.14S-53.03-2.78-53.03-2.78L-.16-54.98,52.04-2.12-.82,50.08v1.14Z"/>
        <path class="cls-93" d="m-.83,50.65L-53.6-2.78-.16-55.56,52.61-2.12-.83,50.65v-1.14S-52.46-2.78-52.46-2.78L-.17-54.41,51.47-2.13-.82,49.51v1.14Z"/>
        <path class="cls-82" d="m-.82,50.08L-53.03-2.78-.16-54.98,52.04-2.12-.82,50.08v-1.14S-51.89-2.78-51.89-2.78L-.17-53.84,50.89-2.13-.82,48.94v1.14Z"/>
        <path class="cls-82" d="m-.82,49.51L-52.46-2.78-.17-54.41,51.47-2.12-.82,49.51v-1.14S-51.31-2.77-51.31-2.77L-.18-53.27,50.33-2.13-.81,48.37v1.14Z"/>
        <path class="cls-46" d="m-.82,48.94L-51.89-2.78-.17-53.84,50.9-2.13-.82,48.94v-1.14S-50.74-2.77-50.74-2.77L-.18-52.7,49.75-2.14-.81,47.8v1.14Z"/>
        <path class="cls-46" d="m-.81,48.37L-51.31-2.77-.18-53.27,50.33-2.13-.81,48.37v-1.14S-50.17-2.76-50.17-2.76L-.18-52.13,49.18-2.14-.81,47.22v1.14Z"/>
        <path class="cls-91" d="m-.81,47.8L-50.75-2.77-.18-52.7,49.75-2.14-.81,47.8v-1.14S-49.6-2.76-49.6-2.76L-.19-51.56,48.61-2.15-.8,46.65v1.14Z"/>
        <path class="cls-91" d="m-.81,47.22L-50.17-2.76-.18-52.13,49.18-2.14-.81,47.22v-1.14S-49.03-2.76-49.03-2.76L-.19-50.99,48.04-2.15-.8,46.08v1.14Z"/>
        <path class="cls-76" d="m-.8,46.65L-49.6-2.76-.19-51.56,48.61-2.14-.8,46.65v-1.14S-48.46-2.75-48.46-2.75L-.19-50.42,47.47-2.15-.79,45.51v1.14Z"/>
        <path class="cls-76" d="m-.8,46.08L-49.03-2.76-.19-50.99,48.04-2.15-.8,46.08v-1.14S-47.89-2.75-47.89-2.75L-.2-49.84,46.9-2.15-.79,44.94v1.14Z"/>
        <path class="cls-57" d="m-.79,45.51L-48.46-2.75-.19-50.42,47.47-2.15-.79,45.51v-1.14S-47.32-2.75-47.32-2.75L-.2-49.28,46.33-2.16-.79,44.37v1.14Z"/>
        <path class="cls-57" d="m-.79,44.94L-47.89-2.75-.2-49.84,46.9-2.15-.79,44.94v-1.14S-46.75-2.74-46.75-2.74L-.21-48.7,45.75-2.16-.79,43.8v1.14Z"/>
        <path class="cls-4" d="m-.79,44.37L-47.32-2.75-.2-49.28,46.33-2.16-.79,44.37v-1.14S-46.17-2.74-46.17-2.74L-.21-48.13,45.19-2.17-.78,43.23v1.14Z"/>
        <path class="cls-4" d="m-.79,43.8L-46.75-2.74-.21-48.7,45.76-2.16-.79,43.8v-1.14S-45.6-2.73-45.6-2.73L-.21-47.56,44.61-2.17-.78,42.66v1.14Z"/>
        <path class="cls-81" d="m-.78,43.23L-46.17-2.74-.21-48.13,45.19-2.17-.78,43.23v-1.14S-45.03-2.73-45.03-2.73L-.21-46.99,44.04-2.17-.77,42.09v1.14Z"/>
        <path class="cls-81" d="m-.78,42.66L-45.6-2.73-.21-47.56,44.61-2.17-.78,42.66v-1.14S-44.46-2.73-44.46-2.73L-.22-46.42,43.47-2.18-.77,41.51v1.14Z"/>
        <path class="cls-81" d="m-.77,42.09L-45.03-2.73-.21-46.99,44.04-2.17-.77,42.09v-1.14S-43.89-2.73-43.89-2.73L-.22-45.85,42.9-2.18-.77,40.94v1.14Z"/>
        <path class="cls-87" d="m-.77,41.52L-44.46-2.73-.22-46.42,43.47-2.17-.77,41.52v-1.14S-43.32-2.72-43.32-2.72L-.23-45.28,42.33-2.18-.76,40.37v1.14Z"/>
        <path class="cls-87" d="m-.77,40.94L-43.89-2.73-.22-45.85,42.9-2.18-.77,40.94v-1.14S-42.75-2.72-42.75-2.72L-.23-44.71,41.76-2.19-.76,39.8v1.14Z"/>
        <path class="cls-33" d="m-.76,40.37L-43.32-2.72-.23-45.28,42.33-2.18-.76,40.37v-1.14S-42.18-2.71-42.18-2.71L-.23-44.14,41.19-2.19-.76,39.23v1.14Z"/>
        <path class="cls-33" d="m-.76,39.8L-42.75-2.72-.23-44.71,41.76-2.19-.76,39.8v-1.14S-41.61-2.71-41.61-2.71L-.24-43.56,40.62-2.2-.75,38.66v1.14Z"/>
        <path class="cls-83" d="m-.76,39.23L-42.18-2.71-.23-44.14,41.19-2.19-.76,39.23v-1.14S-41.04-2.71-41.04-2.71L-.24-42.99,40.05-2.2-.75,38.09v1.14Z"/>
        <path class="cls-83" d="m-.75,38.66L-41.61-2.71-.24-43.56,40.62-2.2-.75,38.66v-1.14S-40.46-2.7-40.46-2.7L-.24-42.42,39.48-2.2-.74,37.52v1.14Z"/>
        <path class="cls-5" d="m-.75,38.09L-41.04-2.71-.24-42.99,40.05-2.2-.75,38.09v-1.14S-39.9-2.7-39.9-2.7L-.25-41.85,38.9-2.2-.74,36.95v1.14Z"/>
        <path class="cls-5" d="m-.74,37.52L-40.46-2.7-.24-42.42,39.48-2.2-.74,37.52v-1.14S-39.32-2.7-39.32-2.7L-.25-41.28,38.33-2.21-.74,36.37v1.14Z"/>
        <path class="cls-6" d="m-.74,36.95L-39.9-2.7-.25-41.85,38.9-2.2-.74,36.95v-1.14S-38.75-2.69-38.75-2.69L-.26-40.71,37.76-2.21-.74,35.81v1.14Z"/>
        <path class="cls-6" d="m-.74,36.38L-39.32-2.7-.25-41.28,38.33-2.21-.74,36.38v-1.14S-38.18-2.69-38.18-2.69L-.26-40.14,37.19-2.22-.73,35.23v1.14Z"/>
        <path class="cls-6" d="m-.74,35.81L-38.75-2.69-.26-40.71,37.76-2.21-.74,35.81v-1.14S-37.61-2.68-37.61-2.68L-.26-39.57,36.62-2.22-.73,34.66v1.14Z"/>
        <path class="cls-23" d="m-.73,35.23L-38.18-2.69-.26-40.14,37.19-2.22-.73,35.23v-1.14S-37.04-2.68-37.04-2.68L-.26-39,36.05-2.22-.72,34.09v1.14Z"/>
        <path class="cls-23" d="m-.73,34.66L-37.61-2.68-.26-39.57,36.62-2.22-.73,34.66v-1.14S-36.47-2.68-36.47-2.68L-.27-38.43,35.48-2.23-.72,33.52v1.14Z"/>
        <path class="cls-17" d="m-.72,34.09L-37.04-2.68-.26-39,36.05-2.22-.72,34.09v-1.14S-35.9-2.68-35.9-2.68L-.27-37.85,34.91-2.23-.72,32.95v1.14Z"/>
        <path class="cls-17" d="m-.72,33.52L-36.47-2.68-.27-38.43,35.48-2.22-.72,33.52v-1.14S-35.32-2.67-35.32-2.67L-.28-37.28,34.34-2.23-.71,32.38v1.14Z"/>
        <path class="cls-17" d="m-.72,32.95L-35.9-2.67-.27-37.85,34.91-2.23-.72,32.95v-1.14S-34.76-2.67-34.76-2.67L-.28-36.71,33.76-2.24-.71,31.81v1.14Z"/>
        <path class="cls-28" d="m-.71,32.38L-35.32-2.67-.28-37.28,34.34-2.23-.71,32.38v-1.14S-34.18-2.66-34.18-2.66L-.28-36.14,33.19-2.24-.71,31.24v1.14Z"/>
        <path class="cls-28" d="m-.71,31.81L-34.76-2.67-.28-36.71,33.76-2.24-.71,31.81v-1.14S-33.61-2.66-33.61-2.66L-.29-35.57,32.62-2.25-.7,30.67v1.14Z"/>
        <path class="cls-75" d="m-.71,31.24L-34.18-2.66-.28-36.14,33.19-2.24-.71,31.24v-1.14S-33.04-2.66-33.04-2.66L-.29-35,32.05-2.25-.7,30.09v1.14Z"/>
        <path class="cls-75" d="m-.7,30.67L-33.61-2.66-.29-35.57,32.62-2.25-.7,30.67v-1.14S-32.47-2.65-32.47-2.65L-.29-34.43,31.48-2.25-.69,29.52v1.14Z"/>
        <path class="cls-75" d="m-.7,30.09L-33.04-2.66-.29-35,32.05-2.25-.7,30.09v-1.14S-31.9-2.65-31.9-2.65L-.3-33.86,30.91-2.25-.69,28.95v1.14Z"/>
        <path class="cls-88" d="m-.69,29.52L-32.47-2.65-.29-34.43,31.48-2.25-.69,29.52v-1.14S-31.33-2.65-31.33-2.65L-.3-33.29,30.34-2.26-.69,28.38v1.14Z"/>
        <path class="cls-88" d="m-.69,28.95L-31.9-2.65-.3-33.86,30.91-2.25-.69,28.95v-1.14S-30.76-2.64-30.76-2.64L-.31-32.71,29.77-2.26-.69,27.81v1.14Z"/>
        <path class="cls-55" d="m-.69,28.38L-31.33-2.65-.3-33.29,30.34-2.26-.69,28.38v-1.14S-30.19-2.64-30.19-2.64L-.31-32.14,29.2-2.27-.68,27.24v1.14Z"/>
        <path class="cls-55" d="m-.69,27.81L-30.76-2.64-.31-32.71,29.77-2.26-.69,27.81v-1.14S-29.62-2.63-29.62-2.63L-.31-31.57,28.63-2.27-.68,26.67v1.14Z"/>
        <path class="cls-55" d="m-.68,27.24L-30.19-2.64-.31-32.14,29.2-2.27-.68,27.24v-1.14S-29.05-2.63-29.05-2.63L-.31-31,28.05-2.27-.67,26.1v1.14Z"/>
        <path class="cls-22" d="m-.68,26.67L-29.62-2.63-.31-31.57,28.63-2.27-.68,26.67v-1.14S-28.47-2.63-28.47-2.63L-.32-30.43,27.49-2.28-.67,25.53v1.14Z"/>
        <path class="cls-22" d="m-.67,26.1L-29.05-2.63-.31-31,28.05-2.27-.67,26.1v-1.14S-27.9-2.63-27.9-2.63L-.32-29.86,26.91-2.28-.67,24.96v1.14Z"/>
        <path class="cls-22" d="m-.67,25.53L-28.47-2.63-.32-30.43,27.49-2.28-.67,25.53v-1.14S-27.33-2.62-27.33-2.62L-.33-29.29,26.34-2.28-.66,24.38v1.14Z"/>
        <path class="cls-12" d="m-.67,24.96L-27.9-2.62-.32-29.86,26.91-2.28-.67,24.96v-1.14S-26.76-2.62-26.76-2.62L-.33-28.72,25.77-2.29-.66,23.81v1.14Z"/>
        <path class="cls-12" d="m-.66,24.38L-27.33-2.62-.33-29.29,26.34-2.28-.66,24.38v-1.14S-26.19-2.61-26.19-2.61L-.34-28.15,25.2-2.29-.66,23.24v1.14Z"/>
        <path class="cls-12" d="m-.66,23.81L-26.76-2.62-.33-28.72,25.77-2.29-.66,23.81v-1.14S-25.62-2.61-25.62-2.61L-.34-27.58,24.63-2.3-.65,22.67v1.14Z"/>
        <path class="cls-54" d="m-.66,23.24L-26.19-2.61-.34-28.15,25.2-2.29-.66,23.24v-1.14S-25.05-2.61-25.05-2.61L-.34-27,24.06-2.3-.65,22.1v1.14Z"/>
        <path class="cls-54" d="m-.65,22.67L-25.62-2.61-.34-27.58,24.63-2.3-.65,22.67v-1.14S-24.48-2.6-24.48-2.6L-.34-26.44,23.49-2.3-.64,21.53v1.14Z"/>
        <path class="cls-54" d="m-.65,22.1L-25.05-2.61-.34-27,24.06-2.3-.65,22.1v-1.14S-23.91-2.6-23.91-2.6L-.35-25.86,22.91-2.3-.64,20.96v1.14Z"/>
        <path class="cls-54" d="m-.64,21.53L-24.48-2.6-.34-26.44,23.49-2.3-.64,21.53v-1.14S-23.33-2.6-23.33-2.6L-.35-25.29,22.35-2.31-.64,20.39v1.14Z"/>
        <path class="cls-49" d="m-.64,20.96L-23.91-2.6-.35-25.86,22.92-2.3-.64,20.96v-1.14S-22.76-2.59-22.76-2.59L-.36-24.72,21.77-2.31-.64,19.82v1.14Z"/>
        <path class="cls-49" d="m-.64,20.39L-23.33-2.6-.35-25.29,22.35-2.31-.64,20.39v-1.14S-22.19-2.59-22.19-2.59L-.36-24.15,21.2-2.32-.63,19.25v1.14Z"/>
        <path class="cls-49" d="m-.64,19.82L-22.76-2.59-.36-24.72,21.77-2.31-.64,19.82v-1.14S-21.62-2.58-21.62-2.58L-.36-23.58,20.63-2.32-.63,18.67v1.14Z"/>
        <path class="cls-97" d="m-.63,19.25L-22.19-2.59-.36-24.15,21.2-2.32-.63,19.25v-1.14S-21.05-2.58-21.05-2.58L-.36-23.01,20.06-2.32-.62,18.1v1.14Z"/>
        <path class="cls-97" d="m-.63,18.68L-21.62-2.58-.36-23.58,20.63-2.32-.63,18.68v-1.14S-20.48-2.58-20.48-2.58L-.37-22.44,19.49-2.33-.62,17.53v1.14Z"/>
        <path class="cls-97" d="m-.62,18.1L-21.05-2.58-.36-23.01,20.06-2.32-.62,18.1v-1.14S-19.91-2.58-19.91-2.58L-.37-21.86,18.92-2.33-.62,16.96v1.14Z"/>
        <path class="cls-97" d="m-.62,17.53L-20.48-2.58-.37-22.44,19.49-2.33-.62,17.53v-1.14S-19.34-2.57-19.34-2.57L-.38-21.3,18.35-2.33-.61,16.39v1.14Z"/>
        <path class="cls-52" d="m-.62,16.96L-19.91-2.57-.37-21.86,18.92-2.33-.62,16.96v-1.14S-18.77-2.57-18.77-2.57L-.38-20.72,17.78-2.34-.61,15.82v1.14Z"/>
        <path class="cls-52" d="m-.61,16.39L-19.34-2.57-.38-21.3,18.35-2.33-.61,16.39v-1.14S-18.2-2.56-18.2-2.56L-.39-20.15,17.21-2.34-.61,15.25v1.14Z"/>
        <path class="cls-52" d="m-.61,15.82L-18.77-2.57-.38-20.72,17.78-2.34-.61,15.82v-1.14S-17.62-2.56-17.62-2.56L-.39-19.58,16.64-2.35-.6,14.68v1.14Z"/>
        <path class="cls-52" d="m-.61,15.25L-18.2-2.56-.39-20.15,17.21-2.34-.61,15.25v-1.14S-17.05-2.55-17.05-2.55L-.39-19.01,16.06-2.35-.6,14.11v1.14Z"/>
        <path class="cls-56" d="m-.6,14.68L-17.62-2.56-.39-19.58,16.64-2.35-.6,14.68v-1.14S-16.48-2.55-16.48-2.55L-.39-18.44,15.49-2.35-.59,13.53v1.14Z"/>
        <path class="cls-56" d="m-.6,14.11L-17.05-2.55-.39-19.01,16.06-2.35-.6,14.11v-1.14S-15.91-2.55-15.91-2.55L-.4-17.87,14.92-2.35-.59,12.97v1.14Z"/>
        <path class="cls-56" d="m-.59,13.54L-16.48-2.55-.39-18.44,15.49-2.35-.59,13.54v-1.14S-15.34-2.55-15.34-2.55L-.4-17.3,14.35-2.36-.59,12.39v1.14Z"/>
        <path class="cls-56" d="m-.59,12.97L-15.91-2.55-.4-17.87,14.92-2.35-.59,12.97v-1.14S-14.77-2.54-14.77-2.54L-.41-16.73,13.78-2.36-.59,11.82v1.14Z"/>
        <path class="cls-56" d="m-.59,12.39L-15.34-2.55-.4-17.3,14.35-2.36-.59,12.39v-1.14S-14.2-2.54-14.2-2.54L-.41-16.16,13.21-2.37-.58,11.25v1.14Z"/>
        <path class="cls-95" d="m-.59,11.82L-14.77-2.54-.41-16.73,13.78-2.36-.59,11.82v-1.14S-13.63-2.53-13.63-2.53L-.41-15.59,12.64-2.37-.58,10.68v1.14Z"/>
        <path class="cls-95" d="m-.58,11.25L-14.2-2.54-.41-16.16,13.21-2.37-.58,11.25v-1.14S-13.06-2.53-13.06-2.53L-.41-15.01,12.07-2.37-.57,10.11v1.14Z"/>
        <path class="cls-95" d="m-.58,10.68L-13.63-2.53-.41-15.59,12.64-2.37-.58,10.68v-1.14S-12.48-2.53-12.48-2.53L-.42-14.44,11.5-2.38-.57,9.54v1.14Z"/>
        <path class="cls-95" d="m-.57,10.11L-13.06-2.53-.41-15.01,12.07-2.37-.57,10.11v-1.14S-11.92-2.53-11.92-2.53L-.42-13.87,10.92-2.38-.57,8.97v1.14Z"/>
        <path class="cls-95" d="m-.57,9.54L-12.48-2.53-.42-14.44,11.5-2.38-.57,9.54v-1.14S-11.34-2.52-11.34-2.52L-.43-13.3,10.35-2.38-.56,8.4v1.14Z"/>
        <path class="cls-7" d="m-.57,8.97L-11.92-2.52-.42-13.87,10.92-2.38-.57,8.97v-1.14S-10.77-2.52-10.77-2.52L-.43-12.73,9.78-2.39-.56,7.83v1.14Z"/>
        <path class="cls-7" d="m-.56,8.4L-11.34-2.52-.43-13.3,10.35-2.38-.56,8.4v-1.14S-10.2-2.51-10.2-2.51L-.44-12.16,9.21-2.39-.56,7.25v1.14Z"/>
        <path class="cls-7" d="m-.56,7.83L-10.77-2.52-.43-12.73,9.78-2.39-.56,7.83v-1.14S-9.63-2.51-9.63-2.51L-.44-11.59,8.64-2.4-.55,6.68v1.14Z"/>
        <path class="cls-7" d="m-.56,7.25L-10.2-2.51-.44-12.16,9.21-2.39-.56,7.25v-1.14S-9.06-2.5-9.06-2.5L-.44-11.02,8.07-2.4-.55,6.11v1.14Z"/>
        <path class="cls-7" d="m-.55,6.68L-9.63-2.51-.44-11.59,8.64-2.4-.55,6.68v-1.14S-8.49-2.5-8.49-2.5L-.44-10.45,7.5-2.4-.54,5.54v1.14Z"/>
        <path class="cls-7" d="m-.55,6.11L-9.06-2.5-.44-11.02,8.07-2.4-.55,6.11v-1.14S-7.92-2.5-7.92-2.5L-.45-9.87,6.93-2.4-.54,4.97v1.14Z"/>
        <path class="cls-7" d="m-.54,5.54L-8.49-2.5-.44-10.45,7.5-2.4-.54,5.54v-1.14S-7.35-2.5-7.35-2.5L-.45-9.3,6.36-2.41-.54,4.4v1.14Z"/>
        <path class="cls-7" d="m-.54,4.97L-7.92-2.5-.45-9.87,6.93-2.4-.54,4.97v-1.14S-6.78-2.49-6.78-2.49L-.46-8.73,5.79-2.41-.54,3.83v1.14Z"/>
        <path class="cls-7" d="m-.54,4.4L-7.35-2.5-.45-9.3,6.36-2.41-.54,4.4v-1.14S-6.21-2.49-6.21-2.49L-.46-8.16,5.21-2.42-.53,3.26v1.14Z"/>
        <path class="cls-7" d="m-.54,3.83L-6.78-2.49-.46-8.73,5.79-2.41-.54,3.83v-1.14S-5.63-2.48-5.63-2.48L-.46-7.59,4.64-2.42-.53,2.69v1.14Z"/>
        <path class="cls-7" d="m-.53,3.26L-6.21-2.49-.46-8.16,5.21-2.42-.53,3.26v-1.14S-5.06-2.48-5.06-2.48L-.47-7.02,4.07-2.42-.52,2.12v1.14Z"/>
        <path class="cls-7" d="m-.53,2.69L-5.63-2.48-.46-7.59,4.64-2.42-.53,2.69v-1.14s-3.97-4.02-3.97-4.02L-.47-6.45,3.5-2.43-.52,1.54v1.14Z"/>
        <path class="cls-7" d="m-.52,2.12L-5.06-2.48-.47-7.02,4.07-2.42-.52,2.12V.97s-3.4-3.44-3.4-3.44L-.47-5.88l3.4,3.45L-.52.97v1.14Z"/>
        <path class="cls-7" d="m-.52,1.54l-3.97-4.02L-.47-6.45,3.5-2.43-.52,1.54V.4s-2.83-2.87-2.83-2.87L-.48-5.31l2.83,2.87L-.51.4v1.14Z"/>
        <path class="cls-7" d="m-.52.98l-3.4-3.45L-.47-5.88l3.4,3.45L-.52.98V-.17s-2.26-2.3-2.26-2.3L-.48-4.74,1.79-2.44-.51-.17V.98Z"/>
        <path class="cls-7" d="m-.51.4l-2.84-2.87L-.48-5.31l2.83,2.87L-.51.4V-.74s-1.69-1.72-1.69-1.72l1.72-1.7,1.7,1.72L-.51-.74V.4Z"/>
      </g>
    </mask>
    <linearGradient id="_Безымянный_градиент_368" data-name="Безымянный градиент 368" x1="12" y1="38.31" x2="74.46" y2="38.31" gradientUnits="userSpaceOnUse">
      <stop offset="0" stop-color="#fff"/>
      <stop offset="1" stop-color="#fffffa" stop-opacity=".83"/>
    </linearGradient>
  </defs>
  <g class="cls-78">
    <rect class="cls-67" width="86" height="86"/>
  </g>
  <g class="cls-77">
    <path class="cls-10" d="m71.7,34.74l-25.71-25.71c-1.52-1.52-4-1.52-5.52,0l-25.71,25.71c-1.52,1.52-2.76,4.52-2.76,6.67v23.42c0,2.15,1.76,3.9,3.9,3.9h24.01l-10.58-10.57c-.54.19-1.12.29-1.73.29-2.94,0-5.34-2.39-5.34-5.33s2.4-5.34,5.34-5.34,5.33,2.4,5.33,5.34c0,.61-.11,1.19-.29,1.73l8.23,8.23v-30.16c-1.77-.87-2.99-2.69-2.99-4.79,0-2.94,2.4-5.33,5.34-5.33s5.34,2.39,5.34,5.33c0,2.1-1.23,3.92-2.99,4.79v21.15l8.19-8.19c-.16-.51-.25-1.05-.25-1.61,0-2.94,2.39-5.34,5.33-5.34s5.34,2.4,5.34,5.34-2.4,5.34-5.34,5.34c-.65,0-1.27-.12-1.84-.34l-11.43,11.43v8.04h24.98c2.15,0,3.9-1.76,3.9-3.9v-23.42c0-2.15-1.24-5.15-2.76-6.67h0s0,0,0,0Z"/>
  </g>
</svg>